<svg width="28" height="28" viewBox="0 0 28 28" fill="none" xmlns="http://www.w3.org/2000/svg">
<g clip-path="url(#clip0_729_183)">
<path d="M5.83333 23.9167C4.75037 23.9167 3.71175 23.4865 2.94598 22.7207C2.18021 21.9549 1.75 20.9163 1.75 19.8334C1.75 18.7504 2.18021 17.7118 2.94598 16.946C3.71175 16.1802 4.75037 15.75 5.83333 15.75C6.9163 15.75 7.95491 16.1802 8.72069 16.946C9.48646 17.7118 9.91667 18.7504 9.91667 19.8334C9.91667 20.9163 9.48646 21.9549 8.72069 22.7207C7.95491 23.4865 6.9163 23.9167 5.83333 23.9167ZM5.83333 14C4.28624 14 2.80251 14.6146 1.70854 15.7086C0.614582 16.8025 0 18.2863 0 19.8334C0 21.3805 0.614582 22.8642 1.70854 23.9581C2.80251 25.0521 4.28624 25.6667 5.83333 25.6667C7.38043 25.6667 8.86416 25.0521 9.95812 23.9581C11.0521 22.8642 11.6667 21.3805 11.6667 19.8334C11.6667 18.2863 11.0521 16.8025 9.95812 15.7086C8.86416 14.6146 7.38043 14 5.83333 14ZM17.2667 11.6667H22.1667V9.56669H18.4333L16.17 5.75169C15.8317 5.16836 15.1667 4.78336 14.4667 4.78336C13.9183 4.78336 13.4167 5.00502 13.0667 5.36669L8.75 9.67169C8.38833 10.0334 8.16667 10.5 8.16667 11.0834C8.16667 11.8184 8.55167 12.4367 9.15833 12.7984L13.0667 15.1667V21H15.1667V13.4167L12.5417 11.4917L15.2483 8.75003M22.1667 23.9167C21.0837 23.9167 20.0451 23.4865 19.2793 22.7207C18.5135 21.9549 18.0833 20.9163 18.0833 19.8334C18.0833 18.7504 18.5135 17.7118 19.2793 16.946C20.0451 16.1802 21.0837 15.75 22.1667 15.75C23.2496 15.75 24.2882 16.1802 25.054 16.946C25.8198 17.7118 26.25 18.7504 26.25 19.8334C26.25 20.9163 25.8198 21.9549 25.054 22.7207C24.2882 23.4865 23.2496 23.9167 22.1667 23.9167ZM22.1667 14C20.6196 14 19.1358 14.6146 18.0419 15.7086C16.9479 16.8025 16.3333 18.2863 16.3333 19.8334C16.3333 21.3805 16.9479 22.8642 18.0419 23.9581C19.1358 25.0521 20.6196 25.6667 22.1667 25.6667C22.9327 25.6667 23.6913 25.5158 24.399 25.2227C25.1067 24.9295 25.7498 24.4998 26.2915 23.9581C26.8331 23.4165 27.2628 22.7734 27.556 22.0657C27.8491 21.3579 28 20.5994 28 19.8334C28 19.0673 27.8491 18.3088 27.556 17.601C27.2628 16.8933 26.8331 16.2502 26.2915 15.7086C25.7498 15.1669 25.1067 14.7372 24.399 14.4441C23.6913 14.1509 22.9327 14 22.1667 14ZM18.6667 5.60002C19.8333 5.60002 20.7667 4.66669 20.7667 3.50002C20.7667 2.33336 19.8333 1.40002 18.6667 1.40002C17.5 1.40002 16.5667 2.33336 16.5667 3.50002C16.5667 4.66669 17.5 5.60002 18.6667 5.60002Z" fill="black"/>
</g>
<defs>
<clipPath id="clip0_729_183">
<rect width="28" height="28" fill="white"/>
</clipPath>
</defs>
</svg>
