<svg width="32" height="32" viewBox="0 0 32 32" fill="none" xmlns="http://www.w3.org/2000/svg">
<path d="M5.33301 18.6666H8.52634C8.91834 18.6666 9.30501 18.7546 9.65567 18.9253L12.3783 20.2426C12.729 20.412 13.1157 20.5 13.509 20.5H14.8983C16.2423 20.5 17.333 21.5546 17.333 22.856C17.333 22.9093 17.297 22.9546 17.245 22.9693L13.857 23.9066C13.2491 24.0746 12.6008 24.0158 12.033 23.7413L9.12234 22.3333M10.6663 10.452C10.6663 7.66263 13.1943 4.9053 14.9677 3.31463C15.4347 2.89653 16.0395 2.66534 16.6663 2.66534C17.2932 2.66534 17.898 2.89653 18.365 3.31463C20.1383 4.90663 22.6663 7.6613 22.6663 10.4533C22.6663 13.1866 20.3943 16 16.6663 16C12.9383 16 10.6663 13.1866 10.6663 10.452Z" stroke="black" stroke-width="1.77778" stroke-linecap="round" stroke-linejoin="round"/>
<path d="M17.333 21.9999L23.457 20.1186C23.9902 19.955 24.5613 19.964 25.0891 20.1443C25.6168 20.3246 26.0741 20.667 26.3957 21.1226C26.8877 21.8026 26.6877 22.7786 25.9703 23.1919L15.9503 28.9746C15.637 29.1559 15.2901 29.2714 14.9307 29.3143C14.5712 29.3572 14.2068 29.3264 13.8597 29.2239L5.33301 26.6932" stroke="black" stroke-width="1.77778" stroke-linecap="round" stroke-linejoin="round"/>
</svg>
