<svg width="29" height="29" viewBox="0 0 29 29" fill="none" xmlns="http://www.w3.org/2000/svg">
<path d="M14.6212 22.4146L14.5003 22.5354L14.3674 22.4146C8.62783 17.2067 4.83366 13.7629 4.83366 10.2708C4.83366 7.85417 6.64616 6.04167 9.06283 6.04167C10.9237 6.04167 12.7362 7.25 13.3766 8.89333H15.6241C16.2645 7.25 18.077 6.04167 19.9378 6.04167C22.3545 6.04167 24.167 7.85417 24.167 10.2708C24.167 13.7629 20.3728 17.2067 14.6212 22.4146ZM19.9378 3.625C17.8353 3.625 15.8174 4.60375 14.5003 6.13833C13.1832 4.60375 11.1653 3.625 9.06283 3.625C5.34116 3.625 2.41699 6.53708 2.41699 10.2708C2.41699 14.8262 6.52533 18.56 12.7482 24.2029L14.5003 25.7979L16.2524 24.2029C22.4753 18.56 26.5837 14.8262 26.5837 10.2708C26.5837 6.53708 23.6595 3.625 19.9378 3.625Z" fill="black"/>
</svg>
